<?xml version="1.0" standalone="no"?>
<!DOCTYPE svg PUBLIC "-//W3C//DTD SVG 20010904//EN"
 "http://www.w3.org/TR/2001/REC-SVG-20010904/DTD/svg10.dtd">
<svg version="1.0" xmlns="http://www.w3.org/2000/svg"
 width="50.000000pt" height="50.000000pt" viewBox="0 0 203.000000 193.000000"
 preserveAspectRatio="xMidYMid meet">
 <!-- Definir el gradiente lineal -->
 <linearGradient id="miGradiente" x1="0%" y1="0%" x2="100%" y2="100%">
    <stop offset="0%" style="stop-color:#b15b86; stop-opacity:1" />
    <stop offset="100%" style="stop-color:#440f50; stop-opacity:1" />
  </linearGradient>
<g transform="translate(0.000000,193.000000) scale(0.100000,-0.100000)"
fill="url(#miGradiente)" stroke="none">
<path d="M988 1818 l-28 -10 -2 -351 c-1 -194 -2 -377 -2 -406 l-1 -55 -125
-72 c-260 -151 -360 -205 -370 -199 -6 4 -10 106 -10 279 0 248 2 274 18 288
9 8 78 49 152 91 74 42 143 83 153 90 19 16 24 32 5 21 -7 -4 -8 -3 -4 5 4 6
11 9 16 6 18 -11 28 25 29 112 1 55 -2 94 -8 98 -6 3 -23 -2 -39 -13 -15 -11
-90 -55 -167 -97 -229 -128 -301 -178 -327 -227 -23 -43 -23 -47 -25 -433 l-2
-390 25 -50 c28 -55 48 -75 76 -75 20 0 341 178 346 192 2 4 8 8 14 8 5 0 83
43 173 95 90 52 168 95 172 95 4 0 45 -23 91 -50 46 -28 86 -50 89 -50 4 0 34
-17 67 -38 34 -22 100 -61 148 -88 49 -27 88 -54 88 -61 0 -10 -19 -23 -140
-91 -58 -32 -221 -128 -283 -165 l-58 -35 -42 21 c-23 12 -43 25 -45 30 -2 4
-7 7 -12 7 -4 0 -56 29 -115 64 -144 87 -162 89 -264 34 -50 -26 -80 -48 -79
-57 2 -8 37 -33 78 -56 41 -23 129 -73 195 -110 207 -118 222 -125 284 -125
53 0 67 6 216 91 88 51 229 130 314 178 169 94 239 152 258 214 14 48 10 60
-27 78 -16 8 -89 50 -162 93 -73 44 -216 127 -318 186 l-185 106 0 282 c0 219
3 282 13 282 12 0 344 -186 393 -220 20 -15 29 -16 39 -7 9 8 11 8 7 1 -4 -7
1 -18 10 -25 12 -10 14 -10 9 -1 -14 23 3 12 20 -12 13 -21 15 -56 15 -213 -1
-135 3 -195 12 -213 14 -27 141 -109 170 -110 16 0 17 19 17 254 0 139 -4 277
-10 306 -15 80 -50 115 -201 201 -74 42 -217 125 -319 183 -223 128 -266 142
-342 114z m243 -105 c13 -16 12 -17 -3 -4 -10 7 -18 15 -18 17 0 8 8 3 21 -13z
m190 -190 c13 -16 12 -17 -3 -4 -10 7 -18 15 -18 17 0 8 8 3 21 -13z m-1001
-386 c0 -2 -12 -14 -27 -28 l-28 -24 24 28 c23 25 31 32 31 24z m1401 -14 c13
-16 12 -17 -3 -4 -17 13 -22 21 -14 21 2 0 10 -8 17 -17z"/>
</g>
</svg>
